<?xml version="1.0" encoding="UTF-8"?><svg id="Layer_1" xmlns="http://www.w3.org/2000/svg" viewBox="0 0 2000 2000"><path d="M1500.02,1156.25c-12.74,85.35,46.88,218.75,78.12,265.62,32.54,48.8,70.32,148.45,101.57,289.07,23.75,106.86,6.76,183,31.25,289.06H289.06c24.49-106.06,7.5-182.2,31.25-289.06,31.25-140.62,69.03-240.27,101.57-289.07,31.24-46.87,90.86-180.27,78.12-265.62-12.25-82.06-31.24-171.88-31.24-171.88v-78.12L.01,1894.13v-722.26l62.5-93.75c15.62-250,85.93-453.12,109.37-531.25,23.44-78.12,46.87-140.62,62.5-249.99,15.62-109.38,141.73-211.56,270.07-211.56h.04c89.58,0,175.91-30.33,245.52-85.32,0,0,125,.01,250,0,125,.01,250,0,250,0,69.61,54.99,155.94,85.32,245.52,85.32h.04c128.34,0,254.45,102.18,270.07,211.56,15.63,109.37,39.06,171.87,62.5,249.99,23.44,78.13,93.75,281.25,109.37,531.25l62.5,93.75v722.26l-468.75-987.88v78.12s-18.99,89.82-31.24,171.88Z" fill="#d2d2d2" stroke-width="0"/><path d="M1625.01,796.88c-15.45,108.15-93.75,187.49-93.75,187.49,0,0-273.44-62.5-531.25-62.5s-531.25,62.5-531.25,62.5c0,0-78.3-79.34-93.75-187.49-15.63-109.38,15.62-203.13,62.5-281.26,56.22-93.7,152.61-245.78,145.79-354.84l-5.17-82.66,47.69-11.85,23.23,108.43c7.28,33.96,21.49,65.64,41.34,93.24,19.85,27.6,45.36,51.14,75.24,68.85h468.76c29.88-17.71,55.39-41.25,75.24-68.85,19.85-27.6,34.06-59.28,41.34-93.24l23.23-108.43,47.69,11.85-5.17,82.66c-6.82,109.06,89.57,261.14,145.79,354.84,46.88,78.13,78.13,171.88,62.5,281.26Z" fill="#2b2b2b" stroke-width="0"/><path d="M968.76,336.79l20.84-78.73c2.83-10.68,17.99-10.68,20.81,0l20.84,78.73h-62.5Z" fill="#a2a2a2" stroke-width="0"/><path d="M1000.01,1531.25h0c17.25,0,31.25,14,31.25,31.25h0c0,8.62-7,15.63-15.62,15.63h-31.25c-8.62,0-15.62-7-15.62-15.62h0c0-17.25,14-31.25,31.25-31.25Z" fill="#a2a2a2" stroke-width="0"/><path d="M1937.51,1078.12h-62.97c-85.36,0-162.84,49.89-198.17,127.6l-1.47,3.24-104.97-221.21,126.1,57.32c25.27,11.49,52.71,17.43,80.46,17.43,16.92,0,33.69-2.21,49.91-6.51,16.21-4.31,31.87-10.71,46.56-19.11l58.22-33.27c2.6,24.3,4.75,49.16,6.33,74.51Z" fill="#a2a2a2" stroke-width="0"/><path d="M62.51,1078.12h62.97c85.36,0,162.84,49.89,198.17,127.6l1.47,3.24,104.97-221.21-126.1,57.32c-25.27,11.49-52.71,17.43-80.46,17.43-16.92,0-33.69-2.21-49.91-6.51-16.21-4.31-31.87-10.71-46.56-19.11l-58.22-33.27c-2.6,24.3-4.75,49.16-6.33,74.51Z" fill="#a2a2a2" stroke-width="0"/><path d="M1527.42,1698.35c-127.1,32.04-320.64,67.27-543.04,67.27s-425.3-31.11-545.49-60.2l46.57-7.73c35.43-5.88,61.42-36.53,61.42-72.44v-62.75c12.94,0,24.66,5.25,33.14,13.73s13.73,20.2,13.73,33.14v.8c0,28.13,16.24,53.73,41.69,65.72l21.04,9.92c53.43,25.17,110.2,42.55,168.6,51.35,46.39,7,105.83,12.84,174.92,12.84,77.55,0,145.81-7.36,197.38-15.45,56.36-8.83,111.18-25.57,162.89-49.63l19.61-9.13c25.61-11.92,42-37.61,42-65.86,0-13.1,5.31-24.96,13.89-33.54,8.58-8.58,20.44-13.89,33.54-13.89v64.02c0,34.74,24.3,64.62,58.11,71.83Z" fill="#a2a2a2" stroke-width="0"/><path d="M1710.96,2000H289.06c24.49-106.06,7.5-182.2,31.25-289.06,2.98-13.4,6.02-26.43,9.1-39.07,69,30.43,327.22,93.75,654.97,93.75s609.9-81.53,682.34-109.37c4.43,17.47,8.77,35.71,12.99,54.69,23.75,106.86,6.76,183,31.25,289.06Z" fill="#2b2b2b" stroke-width="0"/></svg>