<?xml version="1.0" encoding="UTF-8"?><svg id="Layer_1" xmlns="http://www.w3.org/2000/svg" viewBox="0 0 2000 2000"><path d="M2000.01,1894.13l-218.75-566.01c15.63,93.75,46.87,187.5,62.5,343.75,15.63,156.25,0,250-15.63,328.13H171.88c-15.63-78.13-31.26-171.88-15.63-328.13s46.87-250,62.5-343.75L0,1894.13v-784.76c-.01-62.5,0-140.62,0-140.62,31.25-156.25,16.54-237.81,78.13-468.75,62.5-234.38,250-359.38,359.37-390.62,106.24-30.36,242.9-54.39,312.51-109.38,0,0,124.99.01,249.99,0h.01c125,.01,249.99,0,249.99,0,69.61,54.99,206.27,79.02,312.51,109.38,109.37,31.24,281.24,156.25,343.75,390.62,61.59,230.94,62.49,312.5,93.74,468.75,0,0,.02,78.12,0,140.62v784.76Z" fill="#d2d2d2" stroke-width="0"/><path d="M968.76,336.79l20.84-78.73c2.83-10.68,17.99-10.68,20.81,0l20.84,78.73h-62.5Z" fill="#a2a2a2" stroke-width="0"/><path d="M1781.26,796.88c-15.45,108.15-62.51,187.49-62.51,187.49,0,0-460.93-62.5-718.74-62.5h-.01c-257.81,0-718.75,62.5-718.75,62.5,0,0-47.05-79.34-62.5-187.5-15.63-109.38,0-203.13,78.13-296.88,78.12-93.75,281.25-187.11,281.25-328.13v-93.46l46.88-11.88,37.21,159.35c14.79,64.88,72.5,110.91,139.05,110.91h397.47c66.55,0,124.26-46.03,139.05-110.91l37.21-159.35,46.88,11.88v93.46c0,141.02,203.13,234.38,281.25,328.13,78.13,93.75,93.76,187.5,78.13,296.88Z" fill="#2b2b2b" stroke-width="0"/><path d="M1828.13,2000H171.88c-15.63-78.13-31.26-171.88-15.63-328.13,1.02-10.2,2.11-20.14,3.25-29.82,35.91,12.99,370,123.57,840.5,123.57s783.82-102.91,840.49-123.72c1.15,9.73,2.24,19.72,3.27,29.97,15.63,156.25,0,250-15.63,328.13Z" fill="#2b2b2b" stroke-width="0"/><path d="M1000.01,1531.25h0c17.25,0,31.25,14,31.25,31.25h0c0,8.62-7,15.63-15.62,15.63h-31.25c-8.62,0-15.62-7-15.62-15.62h0c0-17.25,14-31.25,31.25-31.25Z" fill="#a2a2a2" stroke-width="0"/><path d="M1690.63,980.66l-119.9,31.98c-46.34,12.35-94.09,18.61-142.05,18.61-32.94,0-65.75-2.95-98.04-8.79-32.28-5.83-64.05-14.55-94.91-26.08l-86.75-32.41c-46.86-17.5-96.47-26.47-146.49-26.47-26.63,0-53.13,2.54-79.16,7.55-26.03,5.01-51.58,12.5-76.3,22.39l-50.73,20.29c-71.87,28.75-148.57,43.52-225.99,43.52-38.71,0-77.23-3.69-115.07-10.98-37.84-7.29-74.99-18.17-110.93-32.55l-21.84-8.73c118.7-15.16,466.3-57.12,677.53-57.12h0c219.67,0,586.8,45.38,690.62,58.79Z" fill="#a2a2a2" stroke-width="0"/><path d="M281.25,984.37c-23.44,62.5-62.5,265.63-62.5,343.76,0,0-7.81-62.5-31.25-125s-102.19-124.99-187.5-125v-78.13s46.88,62.5,125,62.5,156.25-78.13,156.25-78.13Z" fill="#a2a2a2" stroke-width="0"/><path d="M1718.75,984.37c23.44,62.5,62.5,265.63,62.5,343.76,0,0,7.81-62.5,31.25-125,23.44-62.5,102.19-124.99,187.5-125v-78.13s-46.87,62.5-125,62.5c-78.12,0-156.25-78.13-156.25-78.13Z" fill="#a2a2a2" stroke-width="0"/><path d="M315.36,1686.42c-82.03-19.78-135.21-37.12-152.72-43.25-1.22-.43-2.27-.8-3.14-1.12,11.58-97.98,29.08-170.48,43.52-235.5,46.52,93.52-46.67,124.82,46.98,234.07,18.69,21.79,42.59,36.25,65.36,45.8Z" fill="#a2a2a2" stroke-width="0"/><path d="M1840.49,1641.9c-21.33,7.83-76.41,27.3-162.89,48.53,24.8-9.45,51.78-25.75,72.4-49.8,93.66-109.27.45-140.57,46.99-234.1,14.43,64.99,31.92,137.45,43.5,235.37Z" fill="#a2a2a2" stroke-width="0"/></svg>