<?xml version="1.0" encoding="UTF-8"?><svg id="Layer_1" xmlns="http://www.w3.org/2000/svg" viewBox="0 0 2000 2000"><path d="M2000.01,1894.13l-286.64-604.08c17.09,89.09,5.39,194.33,5.39,194.33,0,0,46.88,46.87,78.13,234.37,17.99,107.98-23.44,167.74,15.62,281.25H187.51c39.06-113.51-2.37-173.27,15.62-281.25,31.25-187.5,78.13-234.38,78.13-234.38,0,0-11.7-105.23,5.39-194.32L0,1894.13v-941.01c15.61-250,85.93-359.37,109.37-437.5,23.44-78.12,34.6-132.82,78.12-234.37,46.87-109.38,188.61-195.93,316.95-195.93h.04c89.58,0,175.91-30.33,245.52-85.32,0,0,125,.01,250,0,125,.01,250,0,250,0,69.61,54.99,155.94,85.32,245.52,85.32h.04c128.34,0,238.82,86.56,285.69,195.93,43.52,101.55,70.31,187.5,93.75,265.62,23.44,78.13,46.88,203.13,62.5,453.13,0,0,31.25,31.25,62.5,109.38v784.75Z" fill="#d2d2d2" stroke-width="0"/><path d="M187.51,2000c39.06-113.51-2.37-173.27,15.62-281.25,4.88-29.29,10.15-55.15,15.56-77.94.01-.01,0-.01,0-.01.03-.06.05-.12.07-.18,44.32,21.04,409.57,125,765.62,125s750.64-107.59,796.88-125c.02.08.05.15.08.24,5.41,22.77,10.67,48.62,15.55,77.89,17.99,107.98-23.44,167.74,15.62,281.25H187.51Z" fill="#2b2b2b" stroke-width="0"/><path d="M1000.01,1531.25h0c17.25,0,31.25,14,31.25,31.25h0c0,8.62-7,15.63-15.62,15.63h-31.25c-8.62,0-15.62-7-15.62-15.62h0c0-17.25,14-31.25,31.25-31.25Z" fill="#a2a2a2" stroke-width="0"/><path d="M1970.26,1046.9l-76.49,12.64c-69.61,11.5-127.79,59.31-152.56,125.37l-30.26,80.71c-18.47-128.96-54.36-213-73.39-253.48-7.97-16.96-25.02-27.77-43.75-27.77h-155.74c-31.16,0-61.86-7.55-89.46-22l-195.77-109.85c-28.57-16.03-52.94-38.6-71.11-65.86h0c-22.73-34.09-34.85-74.14-34.85-115.11v-124.67c0-17.26,13.99-31.25,31.25-31.25h0l21.82,163.68c5.95,44.63,32.06,84.07,70.82,106.97l245.22,144.9c24.31,14.36,52.02,21.94,80.26,21.94h0c59.75,0,114.38-33.76,141.1-87.21h0c12.27-24.53,16.25-52.38,11.34-79.37l-23.68-130.3h31.24s39.75,172.25,39.75,172.25c4.74,20.52,7.13,41.51,7.13,62.57v62.06c0,20.28,6.58,40.02,18.75,56.25h0c17.71,23.61,45.49,37.5,75,37.5h27.45c42.45,0,83.16-16.86,113.18-46.87h0s14.06,14.06,32.75,46.9Z" fill="#a2a2a2" stroke-width="0"/><path d="M1122.69,1760.92c-45.91,3-92.25,4.7-138.31,4.7-356.05,0-721.3-103.96-765.62-125-.02.06-.04.12-.07.18,29.2-123.06,62.57-156.43,62.57-156.43,0,0-11.7-105.23,5.39-194.32l72.73-251.61v-147.82l19.39-116.37c7.75-46.44,2-94.13-16.55-137.41-1.73-4.04-2.53-8.17-2.53-12.19,0-16.31,13.14-30.9,30.94-30.9,20.54,47.93,30.97,99.28,30.97,150.9,0,25.11-2.47,50.28-7.44,75.15l-6.87,34.36c-.69,3.47-1.04,7-1.04,10.53v3.48c0,14.83,6.01,28.25,15.73,37.97,9.72,9.72,23.15,15.73,37.98,15.73,5.82,0,11.6-.94,17.12-2.8l196.22-66c2.31-.72,4.62-1.06,6.89-1.06,12.23,0,22.94,9.91,22.94,22.99l-234.38,117.19s-78.12,218.75-109.37,289.06-43.16,201.4-15.63,265.62c46.88,109.38,169.61,148.44,359.37,171.88,189.77,23.44,419.57,42.17,419.57,42.17Z" fill="#a2a2a2" stroke-width="0"/></svg>