<svg width="764" height="764" viewBox="0 0 764 764" fill="none" xmlns="http://www.w3.org/2000/svg">
<g clip-path="url(#clip0_1891_105063)">
<path d="M920 1029.35C920 1036.52 912.75 1041.42 906.086 1038.77L870.141 1024.38V1064.27L892.045 1108.07C893.807 1111.6 894.675 1115.41 894.675 1119.17C894.675 1126.59 891.356 1133.86 885.127 1138.76C880.621 1142.31 874.953 1144.03 869.235 1144.03H820.422C808.691 1144.03 798.518 1135.88 795.978 1124.42L760.441 964.565L571.663 549.268C569.186 543.805 561.017 545.579 561.017 551.578V685.369C561.068 706.389 563.353 727.281 567.77 747.702C572.263 768.39 578.939 788.593 587.746 807.967C622.709 884.875 640.797 968.381 640.797 1052.87V1125.26C640.797 1237.46 637.363 1349.63 630.508 1461.62L610.876 1782.17L600.907 1941.7V2001.52C600.92 2043 614.374 2079.28 639.265 2112.46L654.761 2133.14C658.642 2138.32 660.735 2144.61 660.735 2151.08C660.735 2159.34 657.391 2166.82 651.979 2172.23C646.566 2177.66 639.086 2181 630.815 2181H541.091C519.059 2181 501.201 2163.15 501.201 2141.12V1981.58L479.144 1860.35C467.273 1795.07 461.299 1728.83 461.299 1662.47V1463.23C461.299 1423.43 455.989 1383.82 445.522 1345.43L422.545 1261.18C408.555 1209.9 401.47 1156.99 401.458 1103.83V1064.27C401.458 1053.25 392.522 1044.32 381.519 1044.32H381.506C370.503 1044.32 361.568 1053.25 361.568 1064.27V1103.83C361.555 1156.99 354.471 1209.9 340.48 1261.18L317.504 1345.43C307.037 1383.82 301.727 1423.43 301.727 1463.23V1662.47C301.727 1728.83 295.753 1795.07 283.882 1860.35L261.837 1981.58V2141.12C261.837 2163.15 243.966 2181 221.934 2181H132.198C115.681 2181 102.278 2167.61 102.278 2151.08C102.278 2147.84 102.801 2144.65 103.809 2141.63C104.83 2138.6 106.324 2135.73 108.264 2133.14L123.761 2112.46C148.652 2079.28 162.106 2043 162.106 2001.52V1941.7L152.149 1782.17L132.517 1461.62C125.663 1349.63 122.229 1237.46 122.229 1125.26V1052.87C122.229 968.381 140.316 884.875 175.279 807.967C184.087 788.593 190.763 768.39 195.256 747.702C199.673 727.281 201.957 706.389 202.009 685.369V551.565C202.009 545.579 193.839 543.805 191.363 549.268L2.55933 964.552L-32.965 1124.42C-35.5179 1135.88 -45.6786 1144.03 -57.4222 1144.03H-106.362C-111.443 1144.03 -116.472 1142.65 -120.672 1139.81C-127.858 1134.96 -131.662 1127.11 -131.662 1119.17C-131.662 1115.39 -130.807 1111.6 -129.045 1108.07L-107.128 1064.27V1024.38L-143.086 1038.77C-149.75 1041.42 -157 1036.52 -157 1029.36C-157 1027.78 -156.63 1026.26 -155.966 1024.89C-155.29 1023.52 -154.307 1022.3 -153.081 1021.33L-113.779 990.766C-102.826 982.241 -90.4957 975.63 -77.3352 971.24C-71.3485 969.236 -66.332 965.445 -62.8217 960.557C-59.2986 955.682 -57.2818 949.734 -57.2818 943.417V924.669C-57.2818 795.23 -35.2243 709.158 42.4492 605.602L109.03 285.999C116.651 240.283 156.196 206.781 202.545 206.781H202.557C240.507 206.781 276.912 191.709 303.756 164.869L303.782 164.843C315.245 153.382 321.678 137.85 321.678 121.642V107.067L292.511 58.4792C272.444 25.0282 261.837 -13.2598 261.837 -52.2625V-92.35C261.837 -158.435 315.411 -212 381.506 -212C414.554 -212 444.475 -198.612 466.124 -176.954C487.786 -155.308 501.176 -125.393 501.176 -92.35V-52.2625C501.176 -13.247 490.568 25.0155 470.502 58.4665L441.348 107.067V121.654C441.348 137.633 447.538 153.038 458.797 164.397C472.302 178.027 488.296 188.671 505.695 195.869C522.901 202.991 541.487 206.769 560.481 206.769C583.662 206.769 605.132 215.141 621.764 229.231C638.397 243.321 650.192 263.129 653.995 285.987L720.576 605.602C798.263 709.158 820.282 795.23 820.282 924.669V943.417C820.282 956.052 828.362 967.258 840.348 971.24C846.922 973.435 853.304 976.179 859.393 979.446C865.495 982.713 871.315 986.504 876.791 990.766L916.094 1021.33C917.332 1022.3 918.302 1023.52 918.966 1024.88C919.643 1026.26 920 1027.78 920 1029.35Z" fill="#DCDCDC"/>
<path d="M461.542 665.433H401.445V605.73C401.445 589.253 420.261 579.847 433.447 589.725L465.052 613.426C475.226 621.058 481.225 633.029 481.225 645.753C481.225 656.627 472.417 665.433 461.542 665.433Z" fill="#EEEEEE"/>
<path d="M301.472 665.433H361.569V605.73C361.569 589.253 342.753 579.847 329.568 589.725L297.962 613.426C287.788 621.058 281.789 633.029 281.789 645.753C281.789 656.627 290.597 665.433 301.472 665.433Z" fill="#EEEEEE"/>
<path d="M421.741 685.381H460.891C472.098 685.381 481.187 694.468 481.187 705.674V724.92C481.187 736.126 472.098 745.213 460.891 745.213H401.445V705.674C401.445 694.468 410.534 685.381 421.741 685.381Z" fill="#EEEEEE"/>
<path d="M302.108 685.381H341.258C352.465 685.381 361.554 694.468 361.554 705.674V745.213H302.108C290.901 745.213 281.812 736.126 281.812 724.92V705.674C281.812 694.468 290.901 685.381 302.108 685.381Z" fill="#EEEEEE"/>
<path d="M465.895 585.667C462.882 585.667 459.933 584.773 457.419 583.102L401.445 545.784V505.568C401.445 494.733 410.227 485.952 421.065 485.952C454.253 485.952 481.174 512.856 481.174 546.052V570.39C481.174 578.826 474.332 585.667 465.895 585.667Z" fill="#EEEEEE"/>
<path d="M297.068 585.667C300.081 585.667 303.03 584.773 305.544 583.102L361.518 545.784V505.568C361.518 494.733 352.736 485.952 341.898 485.952C308.71 485.952 281.789 512.856 281.789 546.052V570.39C281.789 578.826 288.631 585.667 297.068 585.667Z" fill="#EEEEEE"/>
<path d="M501.189 526.04V725.265L523.375 714.174C534.225 708.75 541.079 697.659 541.079 685.535V595.647C541.079 582.604 538.59 569.688 533.752 557.589L528.557 544.584C524.089 533.391 513.252 526.065 501.202 526.065L501.189 526.04Z" fill="#EEEEEE"/>
<path d="M541.068 725.265L519.202 736.19C508.16 741.716 501.178 752.998 501.178 765.352V864.85H521.116L528.52 842.63C536.83 817.718 541.055 791.631 541.055 765.378V725.252L541.068 725.265Z" fill="#EEEEEE"/>
<path d="M261.839 525.835V725.252L239.654 714.161C228.804 708.737 221.949 697.646 221.949 685.522V595.43C221.949 582.387 224.438 569.471 229.276 557.372L234.471 544.367C238.939 533.174 249.776 525.848 261.826 525.848L261.839 525.835Z" fill="#EEEEEE"/>
<path d="M221.961 725.252L243.827 736.177C254.868 741.703 261.851 752.985 261.851 765.339V864.837H241.912L234.509 842.617C226.199 817.705 221.974 791.618 221.974 765.365V725.239L221.961 725.252Z" fill="#EEEEEE"/>
<path d="M202.009 426.133V505.9C202.009 516.914 210.944 525.835 221.947 525.835L261.837 485.952L201.996 426.121L202.009 426.133Z" fill="#EEEEEE"/>
<path d="M561.018 426.133V505.9C561.018 516.914 552.083 525.835 541.079 525.835L501.189 485.952L561.031 426.133H561.018Z" fill="#EEEEEE"/>
<path d="M428.367 119.089L406.297 207.368C403.451 218.74 393.239 226.717 381.521 226.717C369.803 226.717 359.578 218.74 356.744 207.368L334.674 119.089C333.142 112.989 337.763 107.067 344.056 107.067C348.498 107.067 352.366 110.091 353.438 114.392L356.744 127.602C359.591 138.973 369.803 146.95 381.521 146.95C393.239 146.95 403.463 138.973 406.297 127.602L409.603 114.392C410.676 110.091 414.556 107.067 418.985 107.067C425.278 107.067 429.899 112.976 428.367 119.089Z" fill="#EEEEEE"/>
<path d="M341.618 246.652H276.02C263.434 246.652 257.128 231.439 266.025 222.531L301.728 186.833H321.666L341.618 246.652Z" fill="#EEEEEE"/>
<path d="M421.383 246.652H486.994C499.58 246.652 505.885 231.426 496.988 222.531L461.273 186.833H441.334L421.383 246.652Z" fill="#EEEEEE"/>
<path d="M182.057 386.097V485.965C182.057 512.179 175.956 538.049 164.225 561.494L160 569.93C149.06 591.793 126.722 605.602 102.265 605.602L62.375 585.654L105.622 395.413C109.49 378.375 124.641 366.289 142.116 366.289H162.259C173.199 366.289 182.057 375.146 182.057 386.084V386.097Z" fill="#276EF1"/>
<path d="M-27.3484 944.616H-47.3125V887.567C-47.3125 783.169 -8.16303 682.573 62.375 605.615C80.7051 605.615 92.6274 624.899 84.4324 641.286L49.2911 711.57C24.8594 760.438 5.85267 811.821 -7.39713 864.824L-27.3484 944.629V944.616Z" fill="#EEEEEE"/>
<path d="M142.169 625.55L2.56066 944.617H-17.3906L-0.234802 884.568C14.8914 831.654 34.881 780.259 59.4914 731.034L109.606 630.834C115.809 618.428 132.353 615.736 142.169 625.55Z" fill="#EEEEEE"/>
<path d="M361.555 426.044C361.555 448.123 343.646 466.017 321.563 466.017H261.824L213.969 402.203L202.047 386.224C202.021 360.354 210.395 335.174 225.917 314.485L249.902 282.502C257.408 272.496 269.19 266.6 281.712 266.6H341.578C352.607 266.6 361.542 275.534 361.542 286.561V426.044H361.555Z" fill="#EEEEEE"/>
<path d="M202.008 226.717L154.115 290.556C146.354 300.893 142.154 313.477 142.154 326.406V346.379C131.151 346.379 122.229 337.458 122.229 326.457V306.509C122.229 284.48 131.151 264.532 145.601 250.098C160.025 235.663 179.976 226.729 202.008 226.729V226.717Z" fill="#EEEEEE"/>
<path d="M241.886 266.6L182.045 346.367H151.869V326.163C151.869 313.388 156.018 300.957 163.677 290.734L199.775 242.619C207.281 232.613 219.063 226.717 231.572 226.717H241.886V266.6Z" fill="#EEEEEE"/>
<path d="M401.457 426.044C401.457 448.123 419.366 466.017 441.449 466.017H501.188L549.043 402.203L560.965 386.224C560.991 360.354 552.617 335.174 537.095 314.485L513.11 282.502C505.605 272.496 493.823 266.6 481.301 266.6H421.434C410.405 266.6 401.47 275.534 401.47 286.561V426.044H401.457Z" fill="#EEEEEE"/>
<path d="M561.004 226.717L608.897 290.556C616.658 300.893 620.858 313.477 620.858 326.406V346.379C631.861 346.379 640.784 337.458 640.784 326.457V306.509C640.784 284.48 631.861 264.532 617.411 250.098C602.987 235.663 583.036 226.729 561.004 226.729V226.717Z" fill="#EEEEEE"/>
<path d="M521.128 266.6L580.956 346.367H611.132V326.163C611.132 313.388 606.984 300.957 599.325 290.734L563.226 242.619C555.72 232.613 543.939 226.717 531.429 226.717H521.115V266.6H521.128Z" fill="#EEEEEE"/>
<path d="M580.957 386.097V485.965C580.957 512.179 587.059 538.049 598.789 561.494L603.014 569.93C613.954 591.793 636.292 605.602 660.749 605.602L700.639 585.667L657.392 395.427C653.525 378.388 638.373 366.302 620.898 366.302H600.755C589.816 366.302 580.957 375.159 580.957 386.097Z" fill="#276EF1"/>
<path d="M790.362 944.616H810.326V887.567C810.326 783.169 771.176 682.573 700.638 605.615C682.308 605.615 670.386 624.899 678.581 641.286L713.722 711.57C738.154 760.438 757.161 811.821 770.41 864.824L790.362 944.629V944.616Z" fill="#EEEEEE"/>
<path d="M620.848 625.55L760.456 944.617H780.407L763.251 884.568C748.125 831.654 728.135 780.259 703.525 731.034L653.411 630.834C647.207 618.428 630.664 615.736 620.848 625.55Z" fill="#EEEEEE"/>
</g>
<defs>
<clipPath id="clip0_1891_105063">
<rect width="764" height="764" fill="white"/>
</clipPath>
</defs>
</svg>
