<svg width="764" height="764" viewBox="0 0 764 764" fill="none" xmlns="http://www.w3.org/2000/svg">
<g clip-path="url(#clip0_1891_106786)">
<path d="M920 -439.652C920 -432.479 912.75 -427.578 906.086 -430.233L870.141 -444.617V-404.733L892.045 -360.932C893.807 -357.397 894.675 -353.593 894.675 -349.828C894.675 -342.413 891.356 -335.139 885.127 -330.238C880.621 -326.69 874.953 -324.967 869.235 -324.967H820.422C808.691 -324.967 798.518 -333.122 795.978 -344.583L760.441 -504.435L571.663 -919.732C569.186 -925.195 561.017 -923.421 561.017 -917.422V-783.631C561.068 -762.611 563.353 -741.719 567.77 -721.298C572.263 -700.61 578.939 -680.407 587.746 -661.033C622.709 -584.125 640.797 -500.619 640.797 -416.13V-343.74C640.797 -231.544 637.363 -119.373 630.508 -7.38049L610.876 313.167L600.907 472.7V532.519C600.92 573.997 614.374 610.282 639.265 643.465L654.761 664.14C658.642 669.322 660.735 675.614 660.735 682.084C660.735 690.342 657.391 697.821 651.979 703.232C646.566 708.656 639.086 712 630.815 712H541.091C519.059 712 501.201 694.145 501.201 672.117V512.583L479.144 391.351C467.273 326.07 461.299 259.831 461.299 193.466V-5.77234C461.299 -45.5664 455.989 -85.1816 445.522 -123.572L422.545 -207.818C408.555 -259.099 401.47 -312.013 401.458 -365.169V-404.733C401.458 -415.747 392.522 -424.681 381.506 -424.681C376.005 -424.681 371.014 -422.448 367.401 -418.836C363.802 -415.224 361.568 -410.247 361.568 -404.733V-365.169C361.555 -312.013 354.471 -259.099 340.48 -207.818L317.504 -123.572C307.037 -85.1816 301.727 -45.5664 301.727 -5.77234V193.466C301.727 259.831 295.753 326.07 283.882 391.351L261.837 512.583V672.117C261.824 694.145 243.966 712 221.934 712H132.198C115.68 712 102.278 698.612 102.278 682.084C102.278 678.843 102.801 675.652 103.809 672.627C104.818 669.603 106.311 666.731 108.251 664.14L123.761 643.465C148.652 610.282 162.106 573.997 162.106 532.519V472.7L152.149 313.167L132.517 -7.38049C125.662 -119.373 122.229 -231.544 122.229 -343.74V-416.13C122.229 -500.619 140.316 -584.125 175.279 -661.033C184.087 -680.407 190.763 -700.61 195.256 -721.298C199.673 -741.719 201.957 -762.611 202.009 -783.631V-917.435C202.009 -923.421 193.839 -925.195 191.363 -919.732L2.55934 -504.448L-32.965 -344.583C-35.518 -333.122 -45.6786 -324.967 -57.4222 -324.967H-106.362C-111.443 -324.967 -116.472 -326.345 -120.672 -329.191C-127.858 -334.041 -131.662 -341.89 -131.662 -349.828C-131.662 -353.606 -130.807 -357.397 -129.045 -360.932L-107.128 -404.733V-444.617L-143.086 -430.233C-149.75 -427.578 -157 -432.479 -157 -439.639C-157 -441.222 -156.63 -442.74 -155.966 -444.106C-155.29 -445.484 -154.307 -446.697 -153.081 -447.667L-113.779 -478.234C-102.826 -486.759 -90.4956 -493.37 -77.3352 -497.76C-71.3485 -499.764 -66.332 -503.555 -62.8217 -508.443C-59.2986 -513.318 -57.2818 -519.266 -57.2818 -525.583V-544.331C-57.2818 -673.77 -35.2243 -759.842 42.4492 -863.398L109.03 -1183C116.651 -1228.72 156.196 -1262.22 202.545 -1262.22H202.557C240.507 -1262.22 276.912 -1277.29 303.756 -1304.13L303.782 -1304.16C315.232 -1315.62 321.678 -1331.15 321.678 -1347.36V-1361.93H321.665L292.498 -1410.52C272.432 -1443.97 261.824 -1482.26 261.824 -1521.26V-1561.35C261.824 -1627.44 315.398 -1681 381.494 -1681C414.542 -1681 444.462 -1667.61 466.111 -1645.95C487.773 -1624.31 501.163 -1594.39 501.163 -1561.35V-1521.26C501.163 -1482.25 490.556 -1443.98 470.489 -1410.53L441.348 -1361.96V-1347.35C441.348 -1331.37 447.538 -1315.96 458.797 -1304.6C472.302 -1290.97 488.296 -1280.33 505.695 -1273.13C522.902 -1266.01 541.487 -1262.23 560.481 -1262.23C583.662 -1262.23 605.132 -1253.86 621.764 -1239.77C638.397 -1225.68 650.192 -1205.87 653.995 -1183.01L720.576 -863.398C798.263 -759.842 820.282 -673.77 820.282 -544.331V-525.583C820.282 -512.948 828.362 -501.742 840.348 -497.76C846.922 -495.565 853.304 -492.821 859.393 -489.554C865.495 -486.287 871.315 -482.496 876.791 -478.234L916.094 -447.667C917.332 -446.697 918.302 -445.484 918.966 -444.119C919.642 -442.74 920 -441.222 920 -439.652Z" fill="#DCDCDC"/>
<path d="M520.68 367.051L500.704 400.336L491.896 351.902C484.799 312.861 481.225 273.258 481.225 233.566V73.8541C481.225 57.3265 487.926 42.3814 498.751 31.5586C509.575 20.7231 524.535 14.0355 541.053 14.0355V293.512C541.053 319.421 534.007 344.844 520.68 367.064V367.051Z" fill="#276EF1"/>
<path d="M590.594 392.295L582.016 552.467C581.722 558.057 579.271 563.034 575.48 566.633C571.702 570.207 566.583 572.402 560.992 572.402H541.054C530.038 572.402 521.115 563.481 521.115 552.467V512.583L505.338 425.861L560.992 333.115L590.594 392.295Z" fill="#EEEEEE"/>
<path d="M608.183 63.8224L592.521 356.266L569.838 310.92C564.018 299.281 560.992 286.442 560.992 273.436V14.048C588.092 14.048 609.639 36.7783 608.183 63.8352V63.8224Z" fill="#276EF1"/>
<path d="M242.308 367.051L262.285 400.336L271.093 351.902C278.19 312.861 281.764 273.258 281.764 233.566V73.8541C281.764 57.3265 275.062 42.3814 264.238 31.5586C253.413 20.7231 238.453 14.0355 221.936 14.0355V293.512C221.936 319.421 228.982 344.844 242.308 367.064V367.051Z" fill="#276EF1"/>
<path d="M172.395 392.295L180.973 552.467C181.266 558.057 183.717 563.034 187.508 566.633C191.286 570.207 196.405 572.402 201.996 572.402H221.935C232.951 572.402 241.873 563.481 241.873 552.467V512.583L257.65 425.861L201.996 333.115L172.395 392.295Z" fill="#EEEEEE"/>
<path d="M154.806 63.8224L170.468 356.266L193.151 310.92C198.972 299.281 201.997 286.442 201.997 273.436V14.048C174.898 14.048 153.351 36.7783 154.806 63.8352V63.8224Z" fill="#276EF1"/>
</g>
<defs>
<clipPath id="clip0_1891_106786">
<rect width="764" height="764" fill="white"/>
</clipPath>
</defs>
</svg>
